<!-- assets/images/hero-illustration.svg -->
<svg viewBox="0 0 200 200" xmlns="http://www.w3.org/2000/svg">
  <defs>
    <linearGradient id="grad1" x1="0%" y1="0%" x2="100%" y2="100%">
      <stop offset="0%" style="stop-color:#4A90E2;stop-opacity:1" />
      <stop offset="100%" style="stop-color:#50E3C2;stop-opacity:1" />
    </linearGradient>
     <linearGradient id="grad2" x1="0%" y1="0%" x2="100%" y2="100%">
      <stop offset="0%" style="stop-color:#4a91e2c2;stop-opacity:1" />
      <stop offset="100%" style="stop-color:#50e3c2b0;stop-opacity:1" />
    </linearGradient>
  </defs>
  <path fill="#f0f2f5" d="M48.1,-69.1C62.7,-60.9,75.2,-47.8,79.5,-32.7C83.8,-17.6,80,-0.6,74.1,15.1C68.2,30.8,60.2,45.2,48.2,56.7C36.2,68.2,20.2,76.8,2.7,78.1C-14.8,79.5,-31.1,73.6,-45,63.9C-58.9,54.2,-70.5,40.7,-76.3,25.3C-82.1,9.9,-82.1,-7.3,-75.7,-21.8C-69.3,-36.3,-56.5,-48,-43.2,-57.1C-29.9,-66.2,-14.9,-72.7,1.4,-75.1C17.7,-77.5,35.4,-77.3,48.1,-69.1Z" transform="translate(100 100)" />
  <g transform="translate(50 50) scale(0.5)">
    <path d="M164.2,82.1A82.1,82.1,0,1,1,82.1,0,82.1,82.1,0,0,1,164.2,82.1Z" fill="#FFFFFF"/>
    <path d="M164.2,82.1A82.1,82.1,0,1,1,82.1,0,82.1,82.1,0,0,1,164.2,82.1Z" fill="url(#grad2)" stroke="#FFF" stroke-width="5"/>
    <path d="M129.5,50.6,73.6,106.5a8.2,8.2,0,0,1-11.6,0L34.7,79.2a8.2,8.2,0,0,1,11.6-11.6l21.5,21.5L117.9,39a8.2,8.2,0,1,1,11.6,11.6Z" fill="#FFFFFF"/>
  </g>
</svg>
